<svg version="1" xmlns="http://www.w3.org/2000/svg" width="2190.667" height="2190.667" viewBox="0 0 1643.000000 1643.000000"><path d="M171.8 407C78.7 531 2.1 633.2 1.4 634c-1.4 1.6-4.1-1.2 73.7 78.2 18.5 18.9 39.9 40.7 47.5 48.5 24.8 25.2 86.3 87.9 112 114.2 13.8 14.1 30.2 30.8 36.4 37.1 52.7 54 85.5 87 86.1 86.8.8-.3 32.3-30.9 84.3-81.9 12.7-12.5 29.6-29 37.5-36.7 7.9-7.6 14.2-14.4 14-15-.4-.9-24.8-26-99.1-101.6-13-13.3-29.4-30-36.5-37.3-20-20.5-88.9-90.8-97.5-99.4l-7.7-7.7 23.5-31.4c12.9-17.2 24.3-32.4 25.4-33.8 1-1.4 3.5-4.8 5.6-7.5 2.1-2.8 12.1-16 22.1-29.5 10.1-13.5 19.3-25.6 20.3-27 1-1.4 5.8-7.7 10.5-14s9.1-12.2 9.8-13c.7-.8 4.3-5.8 8.2-11 3.8-5.2 7.2-9.7 7.5-10 .3-.3 7.7-10.2 16.5-22s16.4-22 17-22.6c.5-.6 4.8-6.4 9.5-12.7l8.5-11.6h745l10 13.9c5.5 7.7 10.3 13.9 10.8 14 .4 0 .7.6.7 1.4 0 .8.3 1.6.8 1.8.4.1 3.2 3.7 6.2 7.8s5.8 7.9 6.3 8.5c.4.5 8.9 12 18.9 25.5 9.9 13.5 22.8 30.8 28.5 38.5 5.7 7.7 11.2 15.1 12.1 16.3.9 1.3 3.1 4.2 4.8 6.5 1.7 2.3 11.2 15.1 21.1 28.4l17.9 24.2 68.3-68.3c49.6-49.6 68.1-68.7 67.5-69.7-.4-.8-8-11.1-16.8-22.9-8.8-11.8-20.3-27.4-25.6-34.5-5.3-7.2-16.2-21.8-24.1-32.5-8-10.7-20.6-27.6-27.9-37.5-16.2-21.9-30.4-40.9-52-70-9-12.1-19.5-26.3-23.3-31.5-3.9-5.2-7.4-9.9-7.9-10.5-.6-.7-158.5-1-468.9-1h-468L171.8 407z"/><path d="M1479.5 499.6c-15.9 16.3-34.3 35.1-40.9 41.8-6.5 6.6-28.5 29.1-49 50-20.4 20.8-42.7 43.6-49.6 50.6-6.9 7-29.1 29.7-49.5 50.5-20.3 20.7-42.6 43.5-49.5 50.5-6.9 7-29.4 30-50 51s-42.7 43.5-49 50c-6.3 6.4-28.4 28.9-49 50-20.6 21-43.5 44.3-50.8 51.8-7.4 7.6-29.7 30.3-49.7 50.7-20 20.3-42 42.8-49 50-7 7.1-29.5 30.1-50 51s-46.9 47.8-58.7 59.8l-21.3 21.9-57.2-57.9c-31.4-31.8-66-66.8-76.8-77.8-10.8-11-46.3-46.9-78.8-79.9-32.6-32.9-59.5-60.3-59.8-60.8-.4-.6-1.1-.9-1.7-.7-.6.2-27 26-58.7 57.4-31.7 31.3-63.1 62.3-69.7 68.7-6.6 6.5-11.8 12.2-11.6 12.7.1.5 25.7 26.7 56.8 58.1 31.1 31.5 65.3 66.1 76 77 10.7 10.9 45.2 45.8 76.6 77.7 77 77.8 90.5 91.6 148.8 150.7 53.6 54.4 55.8 56.6 56.6 56.6.3 0 18.6-18.3 40.5-40.6 22-22.4 46.8-47.5 55-55.9 37.9-38.5 109.8-111.5 124-126 8.6-8.8 36.9-37.5 62.9-63.9 25.9-26.3 53.9-54.7 62.1-63.1 8.3-8.4 35.5-36 60.5-61.5 25-25.4 52.9-53.7 61.9-62.8 9-9.2 37.1-37.8 62.5-63.6 25.3-25.7 52.9-53.7 61.1-62.1 8.3-8.4 35.8-36.4 61.2-62.1 25.3-25.8 53.6-54.6 62.8-63.9 9.2-9.4 38.1-38.8 64.4-65.4 26.2-26.6 48.2-49 49-49.8 1.4-1.5 1.4-1.6-5.4-8.8-1.1-1.2-3.6-3.9-5.5-6.1-4.8-5.4-22.4-24.8-23-25.4-.3-.3-4.3-4.8-9-10s-8.9-10-9.5-10.6c-.5-.6-4.6-5.1-9-9.9-15.5-17.2-19.1-21.2-27.6-30.6-4.7-5.2-11-12.1-14-15.4-10.6-11.8-21.5-23.9-25.9-28.7l-4.5-4.9-29 29.7z"/></svg>